# xmcd
# 
# Track frame offsets:
#     150
#     23935
#     64660
#     84610
#     115960
#     134110
#     165235
#     188110
#     210235
#     239410
# 
# Disc length: 3620
# 
# Revision: 3
# Processed by: cddbd v1.5.2PL0 Copyright (c) Steve Scherf et al.
# Submitted via: BonkEnc v1.0.8
# 
DISCID=850e220a
DTITLE=Carlos Franzetti - The Jazz Kameratan
DYEAR=2005
DGENRE=Contemporary Jazz
TTITLE0=Circle
TTITLE1=Nefertiti
TTITLE2=Last Years Waltz
TTITLE3=Quiet Rising
TTITLE4=Allison's Dance
TTITLE5=When Autumn Comes
TTITLE6=Prism
TTITLE7=Van Gogh
TTITLE8=Very Early
TTITLE9=Elegia
EXTD=YEAR: 2000
EXTT0=
EXTT1=
EXTT2=
EXTT3=
EXTT4=
EXTT5=
EXTT6=
EXTT7=
EXTT8=
EXTT9=
PLAYORDER=
